<svg version="1.1" id="Layer_1" xmlns="http://www.w3.org/2000/svg" xmlns:xlink="http://www.w3.org/1999/xlink" x="0px" y="0px"
	 width="100%" viewBox="0 0 1024 1024" enable-background="new 0 0 1024 1024" xml:space="preserve">
<path fill="#000000" opacity="1.000000" stroke="none" 
	d="
M337.000000,790.099487 
	C283.844147,790.101440 231.188309,790.102661 178.532471,790.105286 
	C168.649094,790.105774 164.675980,786.111206 164.663635,776.151611 
	C164.567276,698.400024 222.473984,629.772400 299.102509,616.879822 
	C304.016388,616.053101 308.977783,615.466248 313.937439,614.971802 
	C316.544891,614.711731 317.813690,613.752502 317.795746,610.956726 
	C317.714447,598.293335 317.728271,585.628906 317.774261,572.965149 
	C317.782410,570.727417 316.669800,569.255859 315.162201,567.831726 
	C294.561310,548.371338 282.210754,524.611328 278.090027,496.571594 
	C276.435638,485.314301 276.828735,473.980682 276.801636,462.662598 
	C276.781281,454.164368 276.617035,445.662201 276.829376,437.169617 
	C276.928040,433.223694 276.026917,431.683411 271.593536,431.744385 
	C251.601364,432.019348 231.603394,431.896759 211.607635,431.854858 
	C208.951401,431.849304 206.259811,431.693787 203.648102,431.241150 
	C199.056885,430.445526 195.368484,426.147583 194.936752,421.480042 
	C194.516251,416.934052 197.623795,412.315979 202.168732,410.638702 
	C204.411407,409.811096 206.720062,409.771484 209.063568,409.774933 
	C226.726547,409.800903 244.391357,409.663025 262.051361,409.895874 
	C266.660522,409.956604 268.757141,408.635040 269.888245,403.909698 
	C278.286987,368.822510 286.990814,333.808380 295.592255,298.769745 
	C300.423431,279.089478 316.279297,266.654297 336.587463,266.652008 
	C368.414276,266.648376 400.249939,267.108398 432.064575,266.486145 
	C451.362335,266.108704 469.728760,277.513947 475.235382,300.573547 
	C483.424103,334.864960 492.031616,369.056427 500.219086,403.348114 
	C501.386719,408.238403 503.295319,410.076447 508.528564,409.966827 
	C525.851074,409.603973 543.185364,409.822235 560.515015,409.769501 
	C563.549744,409.760284 566.540283,409.906525 569.268250,411.343567 
	C573.529419,413.588135 575.604614,417.208832 575.170410,421.995483 
	C574.753052,426.596161 571.127136,430.524353 566.608643,431.219971 
	C563.495056,431.699341 560.306030,431.856262 557.149963,431.864685 
	C537.820740,431.916168 518.490295,431.989868 499.162720,431.801880 
	C494.611176,431.757599 493.063629,433.211304 493.153046,437.838379 
	C493.420227,451.663849 493.358398,465.498260 493.254425,479.327881 
	C492.997925,513.447449 481.209320,542.767334 456.360413,566.440308 
	C453.275482,569.379211 452.133575,572.353271 452.222626,576.484619 
	C452.448792,586.977600 452.293365,597.478638 452.298248,607.976501 
	C452.301422,614.769531 452.291626,614.977600 459.042328,615.487671 
	C475.479309,616.729309 491.260834,620.669373 506.245514,627.375427 
	C559.672852,651.285767 592.185059,691.956238 603.446960,749.498779 
	C605.081299,757.849182 605.893616,766.290222 606.180298,774.762634 
	C606.559387,785.963501 602.290405,790.105347 590.945435,790.105103 
	C506.463623,790.103210 421.981812,790.101196 337.000000,790.099487 
M353.555725,652.188110 
	C346.051147,649.794250 338.630920,646.861450 332.530243,641.979492 
	C326.255768,636.958313 319.967468,636.120605 312.187225,636.971069 
	C280.536377,640.430908 253.152420,653.094788 230.309082,674.882568 
	C205.473282,698.570801 190.831360,727.714600 187.213303,762.100952 
	C186.527481,768.618835 186.492020,768.639771 192.368164,768.639954 
	C320.663910,768.643738 448.959686,768.643005 577.255432,768.636780 
	C583.801697,768.636475 584.299255,768.050598 583.524231,761.951172 
	C579.047974,726.725037 564.193542,696.763245 537.862671,672.787964 
	C513.183594,650.316711 484.002411,638.362122 450.707397,636.392212 
	C448.011688,636.232727 445.563110,636.519165 443.181030,638.246460 
	C415.979584,657.970703 386.105194,661.172607 353.555725,652.188110 
M393.500000,431.879120 
	C363.346832,431.875275 333.193268,431.946106 303.041046,431.775665 
	C299.151581,431.753693 298.243988,433.046326 298.283539,436.639557 
	C298.441223,450.964752 298.216125,465.294281 298.385651,479.619202 
	C298.671570,503.783142 305.913849,525.631226 322.047150,543.796692 
	C343.404907,567.844727 369.899353,578.840820 402.149536,571.948914 
	C439.333984,564.002502 469.948639,528.546021 471.553589,484.075378 
	C472.100006,468.935303 471.642120,453.758789 471.629852,438.598907 
	C471.624512,431.994598 471.569702,431.904938 464.968414,431.897552 
	C441.478973,431.871277 417.989471,431.881866 393.500000,431.879120 
M309.246582,333.516510 
	C307.267731,341.640991 305.288910,349.765503 303.232391,358.208862 
	C305.217621,358.438843 306.346558,358.683533 307.475647,358.684143 
	C359.083771,358.710754 410.691895,358.691864 462.299927,358.770905 
	C466.305725,358.777039 467.152557,357.382446 466.190369,353.628143 
	C462.023590,337.369812 458.109192,321.046997 453.993805,304.775269 
	C451.125671,293.435211 444.500000,288.312805 432.920258,288.307495 
	C401.122986,288.292908 369.325714,288.301422 337.528442,288.312103 
	C325.779053,288.316071 319.246765,293.248657 316.280212,304.629669 
	C313.850525,313.951111 311.663391,323.335754 309.246582,333.516510 
M419.500061,380.332672 
	C381.680023,380.335419 343.860016,380.339447 306.039978,380.339874 
	C297.539307,380.339966 297.369385,380.299225 295.670380,388.548309 
	C294.248657,395.450958 291.757477,402.156494 291.110168,409.265472 
	C354.131531,409.265472 416.608582,409.265472 479.719666,409.265472 
	C477.640564,400.876221 475.508728,393.204041 473.908081,385.422546 
	C473.109894,381.542419 471.348541,380.232391 467.482849,380.270477 
	C451.823242,380.424591 436.161224,380.333679 419.500061,380.332672 
M430.365814,620.347839 
	C430.365814,608.830261 430.365814,597.312683 430.365814,584.980957 
	C399.768158,599.179199 369.992340,598.966003 340.572266,585.408508 
	C338.866150,587.238098 339.385223,588.988770 339.373199,590.583862 
	C339.315491,598.245850 339.844940,605.951111 339.193481,613.557739 
	C338.656830,619.824402 341.545166,622.873962 346.486542,625.621460 
	C362.727875,634.651917 380.103638,637.016052 398.173615,634.387756 
	C409.802734,632.696411 420.778595,628.825439 430.365814,620.347839 
z"/>
<path fill="#000000" opacity="1.000000" stroke="none" 
	d="
M583.746521,448.886780 
	C590.042297,436.196289 598.311646,425.368713 607.774170,415.418457 
	C613.426392,409.475006 617.911560,408.454407 623.120605,411.689209 
	C627.837524,414.618378 628.805237,419.490723 626.492615,426.750092 
	C622.839355,438.217438 620.113586,449.767792 622.057373,462.030579 
	C623.912354,473.733582 630.082031,481.744293 640.714966,486.784363 
	C647.715210,490.102539 654.052856,491.188019 661.972412,488.218201 
	C686.806152,478.905640 711.888245,479.891052 736.617920,489.361664 
	C740.023132,490.665771 743.079712,490.941345 746.713318,489.716736 
	C769.817078,481.930298 776.349609,466.734833 772.282593,442.064331 
	C771.309326,436.160461 769.657043,430.400177 767.671326,424.725983 
	C765.752380,419.242676 767.481323,414.293884 771.817200,411.625702 
	C776.139221,408.966064 781.020813,409.293762 785.019531,413.462952 
	C803.472473,432.702423 818.370178,453.921082 819.939209,481.735260 
	C820.647705,494.294495 817.489990,506.158569 811.409546,517.218994 
	C810.467224,518.933167 809.048828,520.467773 808.905396,522.937683 
	C811.614624,524.348755 814.710693,523.404541 817.561218,524.014648 
	C832.388794,527.188660 845.444336,533.869385 856.907837,543.712524 
	C861.896118,547.995667 862.855530,552.848145 860.142639,558.943542 
	C848.031006,586.155518 818.392273,599.488464 789.849121,590.572571 
	C787.967712,589.984863 786.067627,589.457153 783.977234,588.843079 
	C781.976379,593.875610 782.429749,598.919617 781.930298,603.789917 
	C780.551147,617.236450 775.518738,629.588440 770.716492,641.992126 
	C766.497192,652.890015 763.130615,664.014099 760.650146,675.418518 
	C759.267273,681.776611 760.584045,688.053711 761.608948,694.261475 
	C764.861084,713.958923 757.513611,727.345032 739.011353,734.600647 
	C735.713867,735.893738 732.816772,737.668457 729.938721,739.716187 
	C715.979065,749.648254 700.313354,750.758179 684.062012,747.922424 
	C676.076660,746.529053 668.675293,743.585815 662.575073,737.997070 
	C660.657776,736.240479 658.236511,735.589783 655.910034,734.702271 
	C637.697449,727.753906 629.384399,713.523254 633.413574,694.357300 
	C636.527527,679.544312 632.667297,665.875244 627.856567,652.422485 
	C620.524292,631.918213 611.264099,611.999329 612.114990,588.926636 
	C606.404602,590.243408 601.658752,591.575439 596.827087,592.412354 
	C570.564453,596.961243 545.660583,583.630371 534.622070,559.244141 
	C531.421082,552.172546 532.562927,547.711853 538.871765,542.642456 
	C553.371826,530.991028 562.891541,526.997742 586.275574,522.949341 
	C571.700745,498.804260 571.353149,474.179047 583.746521,448.886780 
M560.146973,559.465088 
	C571.959534,571.928589 586.567993,575.257935 602.500793,569.004700 
	C607.612976,566.998291 612.577332,564.611755 617.704773,562.648621 
	C623.073914,560.592896 628.457520,562.455872 630.709167,567.640930 
	C632.049561,570.727722 633.984924,571.867920 636.942261,572.411560 
	C666.721069,577.885071 684.265564,605.759399 679.733215,636.922302 
	C677.432251,652.742737 670.514038,666.736816 660.069092,678.879211 
	C657.143555,682.280151 655.155457,685.804382 655.190491,690.503906 
	C655.215027,693.793579 654.398804,697.092102 653.927429,700.382324 
	C652.716553,708.834534 658.232117,715.004944 667.095398,715.043213 
	C668.345520,713.096436 666.778992,711.595398 666.230042,709.953186 
	C664.369751,704.388367 666.031067,699.241638 670.472473,696.946960 
	C675.185913,694.511841 680.714111,696.018188 683.974365,700.955994 
	C688.143433,707.270142 689.377380,714.089294 686.799072,721.411621 
	C686.279602,722.886963 684.869141,724.265259 686.063110,726.253845 
	C693.768860,728.071411 701.521545,728.494812 709.153992,725.904663 
	C709.509033,723.496094 708.284363,721.965332 707.750793,720.253784 
	C705.420532,712.778870 707.250305,706.028015 711.702637,699.998230 
	C714.503052,696.205627 718.537659,694.719360 723.217163,696.492676 
	C727.954773,698.288086 729.598938,702.084534 729.265137,706.839539 
	C729.151367,708.460022 728.534363,710.059753 728.036316,711.633850 
	C727.685852,712.741455 726.969177,713.861877 727.915710,714.904175 
	C729.063110,716.167908 730.346924,715.365112 731.586365,714.901794 
	C739.283508,712.024353 741.560120,707.817627 740.958740,699.436584 
	C740.263977,689.754395 738.186401,680.932312 730.830566,673.801270 
	C728.046509,671.102295 726.280273,667.256104 724.389587,663.749817 
	C716.542969,649.198547 712.081970,633.839233 715.202637,617.207458 
	C719.790405,592.756409 734.290039,577.547180 758.721436,572.179077 
	C761.473572,571.574402 762.871704,570.244568 764.077942,567.750854 
	C766.530640,562.679993 771.265808,560.838318 776.621460,562.683716 
	C780.546570,564.036255 784.355957,565.747925 788.153931,567.440979 
	C795.589172,570.755493 803.296997,572.628235 811.456665,571.645996 
	C822.425415,570.325623 831.092529,565.204407 837.548401,555.483459 
	C824.599426,547.077576 811.592346,541.523315 796.293701,546.006958 
	C790.709351,547.643677 785.206360,549.578491 779.724182,551.539429 
	C769.142700,555.324463 764.463501,553.359375 760.391785,542.770569 
	C757.068359,534.127869 752.481567,526.283508 746.688660,519.100403 
	C744.992920,516.997803 743.051392,515.244507 740.591553,514.047791 
	C711.939453,500.108337 683.280273,499.666718 654.570618,513.887878 
	C651.962402,515.179871 649.880188,516.972290 648.074036,519.216125 
	C642.075256,526.668274 637.265869,534.753357 633.985962,543.796204 
	C630.681396,552.907043 625.490356,555.210876 616.468628,552.081360 
	C612.540100,550.718567 608.510742,549.596924 604.689880,547.981140 
	C588.911316,541.308777 574.466309,544.698303 560.522156,553.300476 
	C557.574707,555.118774 557.214417,556.664429 560.146973,559.465088 
M770.330261,516.244995 
	C772.204224,519.334534 774.078125,522.424133 775.941589,525.496399 
	C791.548462,516.425171 806.338562,489.516724 793.904907,463.093048 
	C791.909729,483.388672 780.880737,497.035583 763.275391,506.168976 
	C765.753052,509.689178 767.846436,512.663330 770.330261,516.244995 
M634.472168,604.034180 
	C637.566406,621.453430 645.735352,637.138062 651.141785,655.071167 
	C659.831726,639.859131 662.751892,625.368469 655.594604,610.243347 
	C651.345459,601.264038 643.759644,596.011536 633.457764,593.551453 
	C633.821594,597.321045 634.104309,600.250549 634.472168,604.034180 
M736.606079,617.226135 
	C733.363892,630.384155 736.301025,642.333313 743.881165,654.792542 
	C749.772705,633.746277 760.692261,615.476624 761.135254,593.506714 
	C748.291992,596.672852 740.512878,604.348572 736.606079,617.226135 
M611.039490,519.455261 
	C613.228149,521.673096 615.181702,524.182129 618.384216,525.625488 
	C622.732666,519.166870 626.961365,512.885986 631.540344,506.084869 
	C613.314209,497.658875 603.675232,483.175659 600.567688,463.938232 
	C592.000793,481.563354 595.791260,502.289886 611.039490,519.455261 
z"/>
<path fill="#000000" opacity="1.000000" stroke="none" 
	d="
M691.960510,298.409424 
	C677.976379,298.400208 664.482727,298.267700 650.993591,298.454681 
	C646.830933,298.512360 645.286499,297.042725 645.611206,292.952545 
	C645.860840,289.807587 645.651306,286.626892 645.663025,283.462158 
	C645.687988,276.760681 645.692505,276.736053 652.213501,276.727692 
	C668.370483,276.706940 684.530273,276.543152 700.682861,276.807526 
	C705.517883,276.886658 706.971313,275.380432 706.897278,270.581909 
	C706.645447,254.262344 706.921753,237.935120 706.742371,221.613602 
	C706.693420,217.154007 708.009644,215.137314 712.714539,215.596039 
	C716.014404,215.917801 719.393921,215.902359 722.697021,215.596420 
	C727.440552,215.157074 729.152405,216.868179 729.054932,221.759171 
	C728.786194,235.245544 728.980774,248.740997 728.976318,262.232849 
	C728.971558,276.710480 728.963745,276.715515 743.308228,276.721283 
	C757.133301,276.726868 770.959900,276.836395 784.782410,276.648560 
	C788.904968,276.592560 790.552124,278.001617 790.289124,282.130920 
	C790.056702,285.780640 790.030579,289.471710 790.291992,293.117371 
	C790.599182,297.400513 788.668945,298.498230 784.693420,298.460663 
	C768.371338,298.306488 752.046875,298.392578 735.723328,298.401794 
	C729.016174,298.405609 728.966064,298.418884 728.961243,304.950867 
	C728.949341,321.107697 729.016418,337.264587 728.991821,353.421356 
	C728.982117,359.793518 728.613586,360.092133 722.119263,360.124359 
	C719.121216,360.139252 716.110535,359.926514 713.127625,360.133728 
	C708.433716,360.459747 706.676941,358.648071 706.744629,353.788788 
	C706.974243,337.302002 706.668823,320.807709 706.903931,304.321075 
	C706.969604,299.716949 705.520569,297.927185 700.942688,298.360565 
	C698.136292,298.626282 695.284302,298.409393 691.960510,298.409424 
z"/>
</svg>