<svg version="1.1" id="Layer_1" xmlns="http://www.w3.org/2000/svg" xmlns:xlink="http://www.w3.org/1999/xlink" x="0px" y="0px"
	 width="100%" viewBox="0 0 1024 1024" enable-background="new 0 0 1024 1024" xml:space="preserve">
<path fill="#000000" opacity="1.000000" stroke="none" 
	d="
M677.385437,560.541016 
	C689.016785,533.940186 710.119080,519.711975 736.970459,512.780518 
	C750.494629,509.289307 764.223877,508.764404 778.082703,510.409454 
	C782.003296,510.874817 784.151428,513.004883 784.900635,516.603821 
	C792.077454,551.075928 787.332214,582.633057 761.323242,608.467651 
	C747.192444,622.503723 729.579346,629.432678 709.889526,631.397766 
	C704.413452,631.944336 698.964417,632.658325 693.476074,631.553162 
	C691.171814,631.089111 689.710571,632.031677 688.852478,634.275513 
	C684.855347,644.727966 682.893921,655.362671 685.321167,666.533020 
	C686.082031,670.034546 688.358826,672.372742 690.715515,674.733887 
	C708.372925,692.424805 726.110840,710.036255 743.666443,727.827576 
	C755.538330,739.858826 754.566345,757.294189 741.742737,767.185547 
	C731.385803,775.174255 717.300842,774.162598 707.656677,764.534790 
	C676.289978,733.221252 644.983643,701.847351 613.648621,670.502136 
	C597.156494,654.004700 580.570007,637.600220 564.227844,620.955627 
	C561.122009,617.792297 559.071472,618.835144 556.224915,620.907898 
	C528.714172,640.940674 497.894104,652.969116 464.239838,657.008179 
	C424.030457,661.833801 385.406982,655.377380 349.516022,636.388611 
	C290.179138,604.995422 252.109619,556.334656 241.355896,490.038605 
	C227.917862,407.193970 257.635162,340.235535 324.937134,290.478760 
	C354.514008,268.612396 388.437012,257.468048 425.175232,254.546371 
	C527.871887,246.379196 619.609375,318.367798 638.386230,416.911560 
	C649.666748,476.113495 637.012329,529.893799 600.809082,578.096497 
	C599.200195,580.238647 598.065857,581.770264 600.672729,584.371460 
	C622.965088,606.614929 645.090149,629.026184 667.276367,651.376160 
	C667.826233,651.930054 668.505371,652.355652 669.778198,653.354065 
	C671.116455,643.690369 673.541504,634.961975 676.465454,626.348450 
	C676.968384,624.866882 675.963867,622.799622 675.457458,621.060608 
	C669.560791,600.809082 669.217224,580.732056 677.385437,560.541016 
M339.323547,297.860565 
	C321.475769,309.264099 305.851501,323.111572 292.892059,339.922089 
	C257.509064,385.819672 244.608170,437.356567 256.400970,494.079803 
	C267.524384,547.583191 297.840454,588.390564 344.080750,617.072998 
	C381.901245,640.532715 423.445374,648.512634 467.298981,642.333801 
	C501.325867,637.539490 531.957764,623.772095 558.207153,601.487610 
	C611.300598,556.413635 635.732727,498.963226 626.108887,429.735535 
	C617.782104,369.838043 585.816956,324.014496 533.543396,293.173981 
	C497.311462,271.797791 457.835815,264.435852 416.240295,269.561249 
	C388.774994,272.945496 363.292816,282.484894 339.323547,297.860565 
M716.311157,720.188660 
	C681.699097,685.537476 647.088440,650.884949 612.473938,616.236206 
	C605.645386,609.400818 598.837524,602.543945 591.934143,595.784790 
	C590.635315,594.513062 589.147034,592.097839 586.965271,594.151489 
	C581.943481,598.878296 577.152893,603.850830 571.597046,609.393494 
	C584.101257,621.591248 596.132080,633.100037 607.911560,644.860535 
	C644.105164,680.996094 680.191223,717.239380 716.348694,753.411133 
	C722.283875,759.348816 728.908142,759.873230 734.038269,755.025452 
	C739.230286,750.119141 738.914551,743.044067 733.039734,736.970947 
	C727.712585,731.463867 722.224426,726.112549 716.311157,720.188660 
M696.314941,554.822144 
	C686.346802,570.472534 683.130493,587.339172 686.737610,606.452759 
	C688.178223,604.623718 689.063354,603.635864 689.798035,602.546509 
	C700.679871,586.412537 714.045837,572.545959 728.665955,559.809753 
	C734.187256,554.999939 738.612854,554.356689 741.611816,558.091003 
	C744.740540,561.986877 743.486511,566.059753 737.746765,570.641663 
	C737.616699,570.745483 737.474060,570.834473 737.349731,570.944519 
	C723.080627,583.570923 710.042969,597.296021 699.655457,613.365967 
	C698.915344,614.510925 697.493408,615.580933 698.556458,617.609497 
	C713.475830,618.181274 727.540039,614.827454 740.355347,607.017395 
	C770.874695,588.417908 776.897644,553.752747 772.538879,526.303040 
	C772.130859,523.733215 770.246582,523.442200 768.073792,523.370056 
	C763.228516,523.209290 758.435791,523.696533 753.633667,524.207336 
	C730.667908,526.649902 710.890015,535.111267 696.314941,554.822144 
z"/>
<path fill="#000000" opacity="1.000000" stroke="none" 
	d="
M301.668152,543.250977 
	C284.709747,516.359680 275.564392,487.235718 276.191162,455.930664 
	C277.284454,401.320831 299.640625,356.810822 343.639862,323.959290 
	C369.198883,304.875885 398.140472,294.644897 430.134247,292.520996 
	C511.549164,287.116119 585.714539,343.714539 601.263245,425.298950 
	C618.388550,515.155579 559.449707,600.979187 468.875793,617.320312 
	C414.312622,627.164490 366.958832,611.066284 326.554504,573.597412 
	C316.966431,564.705994 309.043213,554.433655 301.668152,543.250977 
M402.759369,311.274811 
	C400.492340,311.844482 398.030945,312.211334 397.498322,315.097321 
	C394.182709,333.061646 393.950104,350.607727 404.983124,366.458954 
	C411.088043,375.229950 419.484955,381.519226 428.190399,387.457855 
	C440.415405,395.797455 453.364990,403.171570 463.372833,414.438904 
	C473.052429,425.336731 477.670288,438.183655 476.807343,452.509277 
	C475.529266,473.726776 466.571869,491.664307 450.815308,505.914307 
	C435.248566,519.992554 417.424347,527.246277 396.233917,521.205444 
	C383.227722,517.497620 374.626587,507.825775 366.724731,497.557129 
	C362.849426,492.521118 358.713531,487.743683 354.004913,483.492981 
	C342.740997,473.324585 329.311890,471.411011 315.561035,477.889740 
	C309.787842,480.609772 304.864746,484.588654 299.733582,488.294159 
	C295.946655,491.029022 294.979828,493.887695 296.528595,498.468536 
	C314.460907,551.506836 350.092896,585.928528 403.998749,601.374939 
	C407.654449,602.422424 409.534637,601.553223 411.524261,598.206360 
	C422.855804,579.144836 437.774261,563.826965 458.589722,555.095581 
	C472.402191,549.301697 487.115509,547.466309 501.825653,545.698669 
	C513.743591,544.266602 525.522278,542.364136 536.496704,537.040405 
	C550.536255,530.229736 562.244812,513.456360 559.818115,494.806061 
	C558.826660,487.185699 555.747925,480.451233 552.161804,473.854218 
	C547.707764,465.660431 541.998474,458.201599 538.002441,449.736023 
	C529.940308,432.656616 532.289673,416.692200 544.885315,402.597778 
	C550.270264,396.572083 556.585449,391.747711 563.502563,387.627838 
	C565.871826,386.216675 568.579590,385.223938 570.639709,382.737000 
	C561.761230,367.435547 551.111084,353.852997 537.304749,342.407715 
	C526.144775,353.166595 513.943787,354.096436 500.524353,348.413788 
	C493.068115,345.256409 485.237976,345.638550 477.494202,347.869812 
	C474.297577,348.790894 471.078217,349.639160 467.849884,350.442902 
	C456.120270,353.363159 446.529633,349.460236 438.582520,340.919617 
	C430.853180,332.612946 427.744415,322.324890 426.884338,311.306366 
	C426.615295,307.859497 425.181641,306.900146 422.142639,307.480408 
	C415.938934,308.664886 409.744080,309.895538 402.759369,311.274811 
M333.660339,351.163727 
	C306.125031,379.797241 291.981140,413.984863 290.277588,454.387909 
	C292.583710,453.338806 293.956421,452.808716 295.240906,452.115265 
	C307.042053,445.744171 319.365967,440.840118 332.767273,439.188873 
	C351.505646,436.880035 367.836884,440.933807 379.554871,457.145264 
	C382.275452,460.909149 385.235870,464.573456 388.532013,467.832397 
	C395.573975,474.794891 403.841064,477.918152 413.520355,473.773956 
	C423.441254,469.526245 429.874817,462.133728 430.700867,451.169464 
	C431.668152,438.330078 425.632050,428.341583 415.938477,420.536346 
	C409.063690,415.000763 401.918610,409.798248 395.992035,403.200531 
	C381.088013,386.608643 374.574890,366.367279 370.597687,344.971527 
	C369.462036,338.862183 368.999084,332.558411 366.608185,326.157928 
	C354.140900,332.723572 343.801239,341.219727 333.660339,351.163727 
M291.768921,475.800049 
	C292.560516,479.136627 292.276459,482.724091 294.192596,486.268372 
	C297.183777,483.933380 299.923767,481.580627 302.873932,479.530212 
	C313.100677,472.422455 323.996063,467.500580 336.933044,469.655731 
	C344.890564,470.981354 351.678131,474.603210 357.692719,479.898041 
	C364.879822,486.225128 370.248077,494.118774 376.404510,501.333008 
	C391.625824,519.169617 411.281738,523.565186 431.991669,512.788696 
	C453.222595,501.741150 466.017090,483.956116 470.734161,460.484070 
	C474.415497,442.165649 469.100098,426.633301 455.817200,413.673492 
	C451.745239,409.700562 447.153015,406.399048 442.544159,403.095673 
	C432.934326,396.208008 422.511658,390.500671 413.413544,382.867920 
	C401.491486,372.865967 393.582306,360.618805 391.296509,344.956024 
	C389.838928,334.968597 391.128326,325.110840 392.267822,314.855499 
	C391.173431,315.060364 390.358398,315.079010 389.653137,315.366638 
	C385.031769,317.251160 380.491180,319.349335 375.809814,321.065796 
	C372.377655,322.324249 371.826050,324.669739 372.422089,327.775269 
	C373.393127,332.834381 374.463409,337.876740 375.317963,342.955444 
	C380.309662,372.621979 392.042511,398.145905 417.955048,415.737701 
	C427.921844,422.504059 433.842560,432.562592 435.819763,444.741028 
	C437.685944,456.235870 431.284668,469.432373 420.324951,476.053162 
	C409.624451,482.517365 398.188690,481.845520 388.113281,474.270813 
	C382.688202,470.192291 378.838745,464.737885 374.844879,459.411957 
	C365.064850,446.369873 351.759369,442.209167 336.084229,443.753998 
	C322.749298,445.068176 310.715912,450.181183 298.779724,455.869934 
	C292.711792,458.761932 288.665192,462.009735 291.152130,469.473999 
	C291.711578,471.153168 291.442474,473.108459 291.768921,475.800049 
M433.639954,605.727783 
	C445.156036,606.230164 456.610687,605.608459 467.942169,603.481079 
	C537.527344,590.417358 589.460693,528.039917 590.019287,457.017792 
	C590.197937,434.308075 585.078369,412.838959 575.665466,392.255066 
	C573.940247,388.482574 572.137085,388.290314 568.831543,390.235687 
	C561.606079,394.488037 554.949036,399.348907 549.195923,405.514587 
	C537.370178,418.188629 535.115723,432.121063 542.641968,447.768311 
	C546.408081,455.598267 551.416382,462.693848 555.885193,470.108032 
	C561.026428,478.637787 564.786316,487.706665 565.201660,497.738098 
	C566.105591,519.569580 551.822205,538.368896 529.724060,545.336548 
	C516.595520,549.476013 502.978668,550.534302 489.471405,552.264221 
	C465.279358,555.362671 444.335388,564.642639 428.302582,583.587524 
	C423.199829,589.617065 418.501343,595.915527 414.532349,603.325623 
	C421.109375,604.813660 426.851196,605.574158 433.639954,605.727783 
M488.487244,341.115845 
	C495.750488,341.330963 502.480042,343.822479 509.257416,346.056732 
	C516.110229,348.315796 529.131104,345.865448 532.330933,338.829376 
	C531.974365,338.382904 531.652893,337.768463 531.153809,337.385620 
	C503.051788,315.830841 471.215790,305.740784 435.883362,306.338348 
	C433.038788,306.386475 432.115509,307.709961 432.168671,310.362366 
	C432.342712,319.048004 434.379395,327.148529 439.562347,334.254364 
	C447.401031,345.001190 456.864166,348.374939 469.620117,344.904724 
	C475.554535,343.290283 481.447296,341.547089 488.487244,341.115845 
z"/>
</svg>