<svg version="1.1" id="Layer_1" xmlns="http://www.w3.org/2000/svg" xmlns:xlink="http://www.w3.org/1999/xlink" x="0px" y="0px"
	 width="100%" viewBox="0 0 1024 1024" enable-background="new 0 0 1024 1024" xml:space="preserve">
<path fill="#000000" opacity="1.000000" stroke="none" 
	d="
M423.801117,744.130005 
	C457.852997,757.564758 492.879181,762.711121 528.910583,760.544922 
	C567.118835,758.247864 602.867188,747.222351 635.805725,727.763428 
	C698.031372,691.002625 738.816650,637.723816 754.987610,567.147522 
	C769.254089,504.883148 759.670166,445.470764 728.312195,389.698151 
	C726.761108,386.939331 725.105652,384.238342 723.586853,381.462280 
	C720.259583,375.380676 721.369446,369.441132 726.318726,366.512421 
	C731.431702,363.486847 737.091614,365.098633 740.808044,370.973206 
	C752.805542,389.937927 762.083679,410.203705 768.902649,431.554596 
	C776.117249,454.144257 780.522522,477.227692 781.438965,501.033020 
	C784.182129,572.284668 761.940491,634.834656 715.324707,688.372681 
	C672.539124,737.511658 618.554321,767.958374 554.072327,777.900085 
	C483.061523,788.848328 417.580902,773.232727 358.920807,731.671692 
	C302.228668,691.504944 265.327087,637.369934 250.518997,569.317383 
	C234.536453,495.867310 248.000580,427.229675 289.487885,364.752991 
	C328.082428,306.632538 382.148315,269.492554 449.790466,252.500229 
	C479.562134,245.021301 509.822266,243.285660 540.448120,246.463150 
	C564.117249,248.918869 587.000732,254.244781 609.227295,262.583893 
	C615.390686,264.896301 618.250122,269.470520 617.124512,274.746521 
	C615.778748,281.054260 609.881104,284.219238 603.130188,281.839661 
	C594.334045,278.739105 585.561340,275.520477 576.504028,273.333527 
	C499.695312,254.787460 428.583313,267.215973 364.824249,314.475250 
	C312.359741,353.362823 279.411011,405.672028 268.859253,470.025116 
	C253.969711,560.833374 282.311249,637.516907 350.568604,699.209595 
	C372.021240,718.598999 396.567902,733.263367 423.801117,744.130005 
z"/>
<path fill="#000000" opacity="1.000000" stroke="none" 
	d="
M760.394043,313.312714 
	C742.075806,341.359467 715.530273,355.672852 683.667908,361.248383 
	C670.040100,363.633057 656.282532,364.966919 642.417542,363.409485 
	C639.743896,363.109192 637.665466,363.842133 635.707703,365.804504 
	C617.590454,383.964844 599.463928,402.117065 581.202942,420.132599 
	C568.755005,432.413269 555.853271,444.236389 544.810730,457.879517 
	C540.378906,463.355103 536.861450,469.355804 533.445984,475.472168 
	C531.534546,478.895264 531.623718,480.931580 535.170227,483.603333 
	C547.281738,492.727783 552.160278,505.193512 549.281250,520.083252 
	C546.464722,534.649414 537.199280,543.979736 523.191650,548.216980 
	C505.068756,553.699036 485.574493,543.927429 478.583557,526.335144 
	C471.658447,508.908539 479.028564,488.960297 496.068939,480.495453 
	C500.597687,478.245789 501.740570,476.153442 500.953400,471.101288 
	C498.385590,454.620941 494.363434,438.734283 484.280396,425.126129 
	C473.420990,410.470245 458.214844,403.362305 440.409546,401.247803 
	C438.426849,401.012390 436.412170,400.953461 434.460236,400.569305 
	C428.878418,399.470703 425.445190,395.275970 425.749634,390.114563 
	C426.056152,384.918884 429.926453,381.073395 435.706757,380.837982 
	C441.894989,380.585968 447.971375,381.837646 453.949036,383.313721 
	C489.357086,392.057312 508.655182,416.098541 517.272156,450.220245 
	C517.840149,452.469299 518.323364,454.739685 518.863831,456.995880 
	C518.895935,457.129883 519.086487,457.225952 519.333618,457.466644 
	C519.667603,457.318420 520.246155,457.254303 520.447632,456.944672 
	C531.734802,439.604614 546.824646,425.671326 561.365173,411.250763 
	C581.355957,391.424835 601.363220,371.615417 621.414124,351.850342 
	C623.461853,349.831696 624.207886,347.792603 624.109436,344.805817 
	C623.277649,319.577637 626.336060,294.911285 636.796875,271.695343 
	C650.638367,240.976379 674.937256,222.374527 706.739136,212.900116 
	C727.835266,206.615143 749.404846,204.369095 771.364014,205.668884 
	C777.731628,206.045807 781.771240,209.493134 782.055481,216.562988 
	C783.422913,250.568710 778.972961,283.359863 760.394043,313.312714 
M705.826721,234.391708 
	C662.228760,249.645294 646.320496,287.304840 644.916809,327.592804 
	C646.557678,327.300507 647.317627,325.895844 648.336060,324.886475 
	C654.962952,318.318359 661.538269,311.698151 668.147461,305.112091 
	C678.179260,295.115356 688.211487,285.118927 698.273315,275.152405 
	C701.188049,272.265289 704.631897,270.853973 708.738953,272.171997 
	C712.772156,273.466339 715.033386,276.379089 715.775635,280.485443 
	C716.554932,284.796631 714.160522,287.759186 711.380432,290.533295 
	C694.867493,307.010437 678.345459,323.478546 661.862854,339.985962 
	C660.924866,340.925323 659.267273,341.552185 659.712158,343.782898 
	C669.541016,343.028809 679.275696,342.054871 688.795105,339.603485 
	C711.905945,333.652283 731.128113,322.054352 743.962036,301.284088 
	C757.451599,279.452881 761.631226,255.263901 762.091553,230.104111 
	C762.159912,226.366547 760.631104,225.144714 757.005615,225.311371 
	C739.807617,226.101913 722.857117,228.197937 705.826721,234.391708 
M501.937775,500.589966 
	C496.493317,505.302399 494.769196,512.421265 497.481842,518.988525 
	C500.135010,525.411743 507.487213,530.124573 514.077148,529.626160 
	C521.130493,529.092712 527.405334,523.916748 529.267212,517.096252 
	C530.951477,510.926239 529.229187,505.202362 524.735779,502.289337 
	C523.832764,505.687286 523.428467,509.088959 523.251465,512.576904 
	C522.916077,519.189392 518.489563,523.464783 512.553955,523.282837 
	C506.812744,523.106934 502.928864,518.813232 502.693176,512.297485 
	C502.555481,508.490631 502.513184,504.680328 501.937775,500.589966 
z"/>
<path fill="#000000" opacity="1.000000" stroke="none" 
	d="
M502.761475,305.963684 
	C502.764587,299.984222 502.630432,294.494507 502.803345,289.014465 
	C503.013885,282.341003 506.988220,278.003693 512.615967,277.946503 
	C518.265747,277.889099 522.841370,282.071198 523.099487,288.441620 
	C523.449219,297.070587 523.436584,305.732361 523.127014,314.363861 
	C522.901123,320.660706 518.731934,324.483582 513.030090,324.518829 
	C507.353394,324.553925 503.450470,320.779358 502.863922,314.431213 
	C502.620148,311.792694 502.782593,309.116669 502.761475,305.963684 
z"/>
<path fill="#000000" opacity="1.000000" stroke="none" 
	d="
M299.009949,502.772766 
	C304.164124,502.780212 308.825836,502.657959 313.477081,502.825043 
	C320.596985,503.080902 324.361450,506.753845 324.317993,513.119141 
	C324.276398,519.210388 320.579315,522.923706 313.711029,523.122498 
	C305.401367,523.363098 297.077667,523.359619 288.765442,523.192200 
	C282.410065,523.064209 278.006866,518.772400 277.871307,513.090210 
	C277.736267,507.429352 282.081116,503.156799 288.535095,502.818787 
	C291.852692,502.644989 295.186340,502.778137 299.009949,502.772766 
z"/>
<path fill="#000000" opacity="1.000000" stroke="none" 
	d="
M747.965698,512.986450 
	C746.243530,520.586853 743.118591,523.184021 735.837280,523.245850 
	C728.357544,523.309387 720.876404,523.309998 713.396729,523.240479 
	C705.830688,523.170166 701.610413,519.336975 701.659790,512.741943 
	C701.706543,506.500244 705.838501,502.906311 713.401306,502.795380 
	C720.879944,502.685638 728.362305,502.699188 735.841431,502.788727 
	C743.406616,502.879272 746.145142,505.169525 747.965698,512.986450 
z"/>
<path fill="#000000" opacity="1.000000" stroke="none" 
	d="
M523.219849,737.492249 
	C521.328186,745.074402 517.557251,748.539734 512.253601,747.984131 
	C506.265747,747.356873 502.794006,742.843018 502.751190,735.457092 
	C502.708771,728.135681 502.653992,720.811340 502.809662,713.492676 
	C502.973083,705.807739 506.900818,701.528198 513.340515,701.658081 
	C519.419739,701.780640 523.169312,706.178284 523.257568,713.585510 
	C523.350830,721.405090 523.262207,729.226807 523.219849,737.492249 
z"/>
</svg>